<?xml version="1.0" encoding="utf-8"?>
<!-- Generator: Adobe Illustrator 21.1.0, SVG Export Plug-In . SVG Version: 6.00 Build 0)  -->
<svg version="1.1" xmlns="http://www.w3.org/2000/svg" xmlns:xlink="http://www.w3.org/1999/xlink" x="0px" y="0px"
	 viewBox="0 0 120 120" style="enable-background:new 0 0 120 120;" xml:space="preserve">
<style type="text/css">
	.st0{display:none;}
	.st1{display:inline;fill:#7E6F5F;stroke:#FFFFFF;stroke-miterlimit:10;}
	.st2{fill:#FFFFFF;stroke:#231F20;stroke-miterlimit:10;}
	.st3{display:inline;}
	.st4{fill:#231F20;}
	
		.st5{display:none;opacity:7.000000e-02;fill:none;stroke:#FFFFFF;stroke-width:0.25;stroke-miterlimit:10;enable-background:new    ;}
</style>
<g id="Layer_2_1_" class="st0">
	<rect x="-45" y="-28.3" class="st1" width="213.1" height="170.6"/>
</g>
<g id="Layer_1">
	<path class="st2" d="M60,7c30.9,0,43.8,21.9,43.8,40c0,19.5-8,24.3-11,30.3c0,0,3.8,11.1-0.9,15.7c-3.5,3.4-11.6,4.8-11.6,4.8
		l-1.6,9.5c0,0-1.1,0.8-3.1,1.8l0.1-3c0-1.2-1-2.2-2.2-2.2h-0.1c-1.2,0-2.2,0.9-2.2,2.1l-0.1,4.9c-1.3,0.4-2.6,0.8-4.1,1.1l0.2-2.8
		c0-1.2-1-2.2-2.2-2.2h-0.1c-1.2,0-2.2,0.9-2.2,2.1l-0.1,3.6c-0.9,0.1-1.7,0.1-2.6,0.1c-0.9,0-1.7,0-2.6-0.1l-0.1-3.6
		c0-1.2-1-2.1-2.2-2.1H55c-1.2,0-2.2,1-2.2,2.2L53,112c-1.5-0.3-2.8-0.7-4.1-1.1l-0.1-4.9c0-1.2-1-2.1-2.2-2.1h-0.1
		c-1.2,0-2.2,1-2.2,2.2l0.1,3c-2-1-3.1-1.8-3.1-1.8l-1.6-9.5c0,0-8.1-1.4-11.6-4.8c-4.7-4.6-0.9-15.7-0.9-15.7c-3-6-11-10.8-11-30.3
		C16.2,28.9,29.1,7,60,7z"/>
	<g id="Layer_2" class="st0">
		<rect x="-28.7" y="-14.2" class="st3" width="366.7" height="153.5"/>
	</g>
	<path class="st4" d="M44.9,80.7c5.7,0,10.3-4.6,10.3-10.3c0-5.7-2-10.3-10.3-10.3s-10.3,4.6-10.3,10.3
		C34.6,76.1,39.2,80.7,44.9,80.7z"/>
	<line class="st5" x1="60" y1="0" x2="60" y2="120"/>
	<line class="st5" x1="120" y1="60" x2="0" y2="60"/>
	<path class="st4" d="M60,99.3c5.7,0,7.8,0.2,7.8-5.5c0-4.2-3.9-13.2-7.8-13.2s-7.8,9-7.8,13.2C52.2,99.5,54.3,99.3,60,99.3z"/>
	<path class="st4" d="M75.1,80.7c-5.7,0-10.3-4.6-10.3-10.3c0-5.7,2-10.3,10.3-10.3s10.3,4.6,10.3,10.3
		C85.4,76.1,80.8,80.7,75.1,80.7z"/>
	<line class="st5" x1="60" y1="0" x2="60" y2="120"/>
	<line class="st5" x1="0" y1="60" x2="120" y2="60"/>
</g>
</svg>
